<svg width="48" height="48" viewBox="0 0 48 48" fill="none" xmlns="http://www.w3.org/2000/svg">
<circle cx="24" cy="24" r="24" fill="#F9B2D0"/>
<path d="M36 24V33.5C36 35.3856 36 36.3284 35.4142 36.9142C34.8284 37.5 33.8856 37.5 32 37.5H15.75C15.053 37.5 14.7045 37.5 14.4147 37.4424C13.2247 37.2056 12.2944 36.2753 12.0576 35.0853C12 34.7955 12 34.447 12 33.75V33.75C12 33.053 12 32.7045 12.0576 32.4147C12.2944 31.2247 13.2247 30.2944 14.4147 30.0576C14.7045 30 15.053 30 15.75 30H32C33.8856 30 34.8284 30 35.4142 29.4142C36 28.8284 36 27.8856 36 26V14.5C36 12.6144 36 11.6716 35.4142 11.0858C34.8284 10.5 33.8856 10.5 32 10.5H16C14.1144 10.5 13.1716 10.5 12.5858 11.0858C12 11.6716 12 12.6144 12 14.5V33.75" stroke="#FAF7FD" stroke-width="2"/>
<path d="M19.5 18L28.5 18" stroke="#FAF7FD" stroke-width="2" stroke-linecap="round"/>
</svg>
