<svg width="48" height="48" viewBox="0 0 48 48" fill="none" xmlns="http://www.w3.org/2000/svg">
<circle cx="24" cy="24" r="24" fill="#F9B2D0"/>
<path d="M33.6 17.995C34.818 17.995 35.805 18.982 35.805 20.2C35.805 21.418 34.818 22.405 33.6 22.405C32.382 22.405 31.3949 21.418 31.3949 20.2C31.3949 18.982 32.382 17.995 33.6 17.995ZM33.6 27.445C36.7185 27.445 40.005 28.978 40.005 29.65V30.805H27.195V29.65C27.195 28.978 30.4815 27.445 33.6 27.445ZM33.6 16C31.2795 16 29.4 17.8795 29.4 20.2C29.4 22.5205 31.2795 24.4 33.6 24.4C35.9205 24.4 37.8 22.5205 37.8 20.2C37.8 17.8795 35.9205 16 33.6 16ZM33.6 25.45C30.7965 25.45 25.2 26.857 25.2 29.65V32.8H42V29.65C42 26.857 36.4035 25.45 33.6 25.45Z" fill="#FAF7FD"/>
<path fill-rule="evenodd" clip-rule="evenodd" d="M19.2 26.8C20.916 26.008 23.16 25.6 24.6 25.6C25.7934 25.6 27.5314 25.8722 29.064 26.4178C28.3965 26.7674 27.7907 27.2187 27.267 27.751C26.4279 27.5393 25.5071 27.4 24.6 27.4C23.328 27.4 22.032 27.676 20.976 28.036C21.36 28.468 21.6 28.948 21.6 29.5V31H25.4268C25.2788 31.5753 25.2 32.1785 25.2 32.8H6V29.5C6 26.896 11.196 25.6 13.8 25.6C15.24 25.6 17.484 25.996 19.2 26.8ZM7.8 29.5V31H19.8V29.5C19.8 28.852 16.728 27.4 13.8 27.4C10.872 27.4 7.8 28.852 7.8 29.5ZM18 20.2C18 22.516 16.116 24.4 13.8 24.4C11.484 24.4 9.6 22.516 9.6 20.2C9.6 17.884 11.484 16 13.8 16C16.116 16 18 17.884 18 20.2ZM16.2 20.2C16.2 18.88 15.12 17.8 13.8 17.8C12.48 17.8 11.4 18.88 11.4 20.2C11.4 21.52 12.48 22.6 13.8 22.6C15.12 22.6 16.2 21.52 16.2 20.2ZM28.8 20.2C28.8 22.516 26.916 24.4 24.6 24.4C22.284 24.4 20.4 22.516 20.4 20.2C20.4 17.884 22.284 16 24.6 16C26.916 16 28.8 17.884 28.8 20.2ZM27 20.2C27 18.88 25.92 17.8 24.6 17.8C23.28 17.8 22.2 18.88 22.2 20.2C22.2 21.52 23.28 22.6 24.6 22.6C25.92 22.6 27 21.52 27 20.2Z" fill="#FAF7FD"/>
</svg>
