<svg width="48" height="48" viewBox="0 0 48 48" fill="none" xmlns="http://www.w3.org/2000/svg">
<circle cx="24" cy="24" r="24" fill="#AD84D7"/>
<path d="M37.5 27.375H22.6838L25.5862 24.4612L24 22.875L18.375 28.5L24 34.125L25.5862 32.5387L22.6838 29.625H37.5V27.375Z" fill="white"/>
<path d="M33 21.75V17.25C33.0009 17.102 32.9725 16.9552 32.9165 16.8181C32.8605 16.6811 32.778 16.5564 32.6737 16.4513L24.7987 8.57627C24.6936 8.472 24.569 8.38951 24.4319 8.33353C24.2948 8.27754 24.1481 8.24916 24 8.25002H12.75C12.1533 8.25002 11.581 8.48707 11.159 8.90903C10.7371 9.33099 10.5 9.90328 10.5 10.5V37.5C10.5 38.0968 10.7371 38.6691 11.159 39.091C11.581 39.513 12.1533 39.75 12.75 39.75H30.75C31.3467 39.75 31.919 39.513 32.341 39.091C32.7629 38.6691 33 38.0968 33 37.5V35.25H30.75V37.5H12.75V10.5H21.75V17.25C21.75 17.8468 21.9871 18.4191 22.409 18.841C22.831 19.263 23.4033 19.5 24 19.5H30.75V21.75H33ZM24 17.25V10.9613L30.2887 17.25H24Z" fill="white"/>
</svg>
