<svg width="20" height="19" viewBox="0 0 20 19" fill="none" xmlns="http://www.w3.org/2000/svg">
<path d="M15 13.6079L19 9.60791M19 9.60791L15 5.60791M19 9.60791H5M11 13.6079V14.6079C11 15.4036 10.6839 16.1666 10.1213 16.7292C9.55871 17.2918 8.79565 17.6079 8 17.6079H4C3.20435 17.6079 2.44129 17.2918 1.87868 16.7292C1.31607 16.1666 1 15.4036 1 14.6079V4.60791C1 3.81226 1.31607 3.0492 1.87868 2.48659C2.44129 1.92398 3.20435 1.60791 4 1.60791H8C8.79565 1.60791 9.55871 1.92398 10.1213 2.48659C10.6839 3.0492 11 3.81226 11 4.60791V5.60791" stroke="white" stroke-width="2" stroke-linecap="round" stroke-linejoin="round"/>
</svg>
