<svg width="28" height="33" viewBox="0 0 28 33" fill="none" xmlns="http://www.w3.org/2000/svg">
<path d="M13.9998 32.6667C15.8332 32.6667 17.3332 31.1667 17.3332 29.3334H10.6665C10.6665 31.1667 12.1665 32.6667 13.9998 32.6667ZM23.9998 22.6667V14.3334C23.9998 9.21675 21.2832 4.93341 16.4998 3.80008V2.66675C16.4998 1.28341 15.3832 0.166748 13.9998 0.166748C12.6165 0.166748 11.4998 1.28341 11.4998 2.66675V3.80008C6.73317 4.93341 3.99984 9.20008 3.99984 14.3334V22.6667L0.666504 26.0001V27.6667H27.3332V26.0001L23.9998 22.6667ZM20.6665 24.3334H7.33317V14.3334C7.33317 10.2001 9.84984 6.83341 13.9998 6.83341C18.1498 6.83341 20.6665 10.2001 20.6665 14.3334V24.3334Z" fill="#47236C"/>
</svg>
