<svg width="23" height="32" viewBox="0 0 23 32" fill="none" xmlns="http://www.w3.org/2000/svg">
<path d="M23 13.75V9.25002C23.0009 9.10196 22.9725 8.95519 22.9165 8.81812C22.8605 8.68106 22.778 8.55639 22.6737 8.45127L14.7987 0.576269C14.6936 0.472002 14.569 0.389511 14.4319 0.333526C14.2948 0.277541 14.1481 0.249163 14 0.250019H2.75C2.15326 0.250019 1.58097 0.487072 1.15901 0.909028C0.737053 1.33099 0.5 1.90328 0.5 2.50002V29.5C0.5 30.0968 0.737053 30.6691 1.15901 31.091C1.58097 31.513 2.15326 31.75 2.75 31.75H20.75C21.3467 31.75 21.919 31.513 22.341 31.091C22.7629 30.6691 23 30.0968 23 29.5V27.25H20.75V29.5H2.75V2.50002H11.75V9.25002C11.75 9.84676 11.9871 10.4191 12.409 10.841C12.831 11.263 13.4033 11.5 14 11.5H20.75V13.75H23ZM14 9.25002V2.96127L20.2887 9.25002H14Z" fill="white"/>
</svg>
